<svg width="836" height="480" viewBox="0 0 836 480" fill="none" xmlns="http://www.w3.org/2000/svg">
<g filter="url(#filter0_d_222_3)">
<path fill-rule="evenodd" clip-rule="evenodd" d="M538.097 369.892C462.173 384.422 466.921 320.037 406.553 310.197C332.559 298.137 189.076 351.737 165.67 309.189C141.586 265.408 231 192.958 317.737 148.743C393.087 110.332 472.482 119.415 552.787 111.852C632.466 104.347 732.333 76.5465 771.082 106.046C812.037 137.225 777.114 196.458 731.61 247.989C688.489 296.823 620.765 354.071 538.097 369.892Z" fill="url(#paint0_linear_222_3)"/>
<path fill-rule="evenodd" clip-rule="evenodd" d="M248.178 112.122C331.754 117.643 382.495 169.823 437.694 213.798C498.164 261.971 619.738 315.538 572.24 370.288C521.365 428.931 390.347 382.83 291.848 381.91C263.82 381.649 239.7 375.995 214.87 366.951C191.64 358.491 174.34 347.447 158.028 333.172C101.192 283.431 -17.5327 246.49 7.39206 185.373C32.5345 123.723 156.417 106.061 248.178 112.122Z" fill="url(#paint1_linear_222_3)"/>
</g>
<defs>
<filter id="filter0_d_222_3" x="0" y="92.7726" width="793.241" height="315.227" filterUnits="userSpaceOnUse" color-interpolation-filters="sRGB">
<feFlood flood-opacity="0" result="BackgroundImageFix"/>
<feColorMatrix in="SourceAlpha" type="matrix" values="0 0 0 0 0 0 0 0 0 0 0 0 0 0 0 0 0 0 127 0" result="hardAlpha"/>
<feOffset dy="4"/>
<feGaussianBlur stdDeviation="2"/>
<feComposite in2="hardAlpha" operator="out"/>
<feColorMatrix type="matrix" values="0 0 0 0 0 0 0 0 0 0 0 0 0 0 0 0 0 0 0.25 0"/>
<feBlend mode="normal" in2="BackgroundImageFix" result="effect1_dropShadow_222_3"/>
<feBlend mode="normal" in="SourceGraphic" in2="effect1_dropShadow_222_3" result="shape"/>
</filter>
<linearGradient id="paint0_linear_222_3" x1="529.589" y1="375.376" x2="437.51" y2="105.262" gradientUnits="userSpaceOnUse">
<stop stop-color="#E9C7F4"/>
<stop offset="1" stop-color="#FEFAF6" stop-opacity="0"/>
</linearGradient>
<linearGradient id="paint1_linear_222_3" x1="293.5" y1="111" x2="293.5" y2="400" gradientUnits="userSpaceOnUse">
<stop stop-color="#FDD3DB"/>
<stop offset="1" stop-color="#FEFAF6" stop-opacity="0"/>
</linearGradient>
</defs>
</svg>
